<svg width="200" height="200" viewBox="0 0 200 200" xmlns="http://www.w3.org/2000/svg">
  <!-- Background circle -->
  <circle cx="100" cy="100" r="95" fill="#54a9f7" stroke="#2196F3" stroke-width="5"/>
  
  <!-- Milk drop -->
  <path d="M100 40 C85 40, 75 50, 75 65 C75 80, 85 90, 100 95 C115 90, 125 80, 125 65 C125 50, 115 40, 100 40 Z" fill="white"/>
  
  <!-- Company name - KUMAR -->
  <text x="100" y="125" font-family="Arial, sans-serif" font-size="20" font-weight="bold" text-anchor="middle" fill="white">KUMAR</text>
  
  <!-- Subtitle - MILK DISTRIBUTORS -->
  <text x="100" y="145" font-family="Arial, sans-serif" font-size="12" text-anchor="middle" fill="white">MILK DISTRIBUTORS</text>
  
  <!-- Decorative elements - milk bubbles -->
  <circle cx="65" cy="75" r="3" fill="rgba(255,255,255,0.6)"/>
  <circle cx="135" cy="85" r="2" fill="rgba(255,255,255,0.6)"/>
  <circle cx="80" cy="130" r="2" fill="rgba(255,255,255,0.4)"/>
  <circle cx="120" cy="135" r="2" fill="rgba(255,255,255,0.4)"/>
  
  <!-- Bottom wave -->
  <path d="M20 160 Q50 150, 80 160 T140 160 T200 160 L200 180 L20 180 Z" fill="rgba(255,255,255,0.1)"/>
</svg>


